<svg width="70" height="70" fill="none" xmlns="http://www.w3.org/2000/svg"><path d="M47.305 0c-.755 0-1.367.612-1.367 1.367v6.29a1.367 1.367 0 0 0 2.734 0v-6.29C48.672.612 48.06 0 47.305 0ZM15.86 42.656a1.368 1.368 0 1 0 0 2.736 1.368 1.368 0 0 0 0-2.736Z" fill="#fff"/><path d="M66.445 39.922a5.475 5.475 0 0 0-5.468-5.469H50.77c1.58-4.047 2.22-8.811 2.096-13.052-.023-.809-.054-1.277-.096-1.571a5.476 5.476 0 0 0-5.465-5.338 5.475 5.475 0 0 0-5.47 5.469v1.367c0 8.647-11.102 13.505-19.482 15.589a4.107 4.107 0 0 0-3.76-2.464H4.923c-.755 0-1.367.612-1.367 1.367v32.813c0 .755.612 1.367 1.367 1.367h13.672a4.106 4.106 0 0 0 3.746-2.435c.694.178 1.338.346 1.933.502C29.046 69.313 31.675 70 38.07 70h14.702a5.475 5.475 0 0 0 5.47-5.469c0-1.124-.342-2.17-.926-3.04a5.47 5.47 0 0 0 3.66-5.163c0-1.12-.333-2.17-.916-3.044a5.47 5.47 0 0 0 2.724-8.2 5.47 5.47 0 0 0 3.66-5.162ZM19.961 65.898c0 .754-.613 1.368-1.367 1.368H6.289V37.187h12.305c.754 0 1.367.614 1.367 1.368v27.343Zm41.016-23.242H54.14a1.367 1.367 0 0 0 0 2.735h4.101a2.734 2.734 0 1 1 0 5.469h-6.836a1.367 1.367 0 0 0 0 2.734h4.102c1.49 0 2.734 1.19 2.734 2.734a2.734 2.734 0 0 1-2.734 2.734h-6.836a1.367 1.367 0 0 0 0 2.735h4.101a2.737 2.737 0 0 1 2.735 2.734 2.737 2.737 0 0 1-2.735 2.735H38.071c-6.044 0-8.405-.617-13.107-1.845-.69-.18-1.445-.377-2.269-.587V39.652c9.894-2.357 21.875-8.11 21.875-18.324v-1.367a2.737 2.737 0 0 1 2.735-2.734 2.739 2.739 0 0 1 2.734 2.73v.004c0 .594.742 7.886-2.232 14.492h-4.604a1.367 1.367 0 0 0 0 2.734h17.774a2.734 2.734 0 1 1 0 5.469Z" fill="#fff"/><path d="M15.86 48.125c-.756 0-1.368.612-1.368 1.367V60.43a1.367 1.367 0 0 0 2.735 0V49.492c0-.755-.613-1.367-1.368-1.367ZM36.367 17.227h-5.469a1.367 1.367 0 0 0 0 2.734h5.47a1.367 1.367 0 0 0 0-2.734ZM63.71 17.227h-5.468a1.367 1.367 0 0 0 0 2.734h5.469a1.367 1.367 0 0 0 0-2.734ZM59.872 6.026a1.368 1.368 0 0 0-1.934 0l-3.866 3.867a1.367 1.367 0 0 0 1.934 1.933l3.866-3.866c.534-.534.534-1.4 0-1.934ZM40.537 9.893l-3.866-3.867a1.368 1.368 0 0 0-1.934 1.934l3.866 3.866a1.368 1.368 0 0 0 1.934-1.933Z" fill="#fff"/></svg>