<svg width="53" height="70" fill="none" xmlns="http://www.w3.org/2000/svg"><path d="M5.629 25.977c0 11.308 9.2 20.507 20.508 20.507s20.508-9.2 20.508-20.507c0-11.309-9.2-20.508-20.508-20.508-11.309 0-20.508 9.2-20.508 20.508ZM26.137 8.203c9.8 0 17.773 7.973 17.773 17.774 0 9.8-7.973 17.773-17.773 17.773S8.363 35.777 8.363 25.977 16.336 8.203 26.137 8.203Z" fill="#fff"/><path d="m13.475 23.54 5.3 5.22-1.22 7.34a1.367 1.367 0 0 0 1.98 1.437l6.602-3.429 6.602 3.429a1.367 1.367 0 0 0 1.978-1.438l-1.219-7.338 5.3-5.222a1.366 1.366 0 0 0-.757-2.326l-7.354-1.107-3.328-6.655a1.367 1.367 0 0 0-2.445 0l-3.328 6.655-7.354 1.107a1.367 1.367 0 0 0-.757 2.326Zm9.22-.836c.44-.066.82-.342 1.02-.74l2.422-4.844 2.422 4.844c.199.398.58.674 1.02.74l5.352.806-3.857 3.8a1.37 1.37 0 0 0-.39 1.199l.888 5.34-4.806-2.494a1.364 1.364 0 0 0-1.26 0l-4.805 2.495.888-5.341a1.366 1.366 0 0 0-.39-1.199l-3.857-3.8 5.353-.806ZM27.504 1.367a1.367 1.367 0 1 1-2.734 0 1.367 1.367 0 0 1 2.734 0Z" fill="#fff"/><path d="M19.693.806C8.193 3.742.16 14.092.16 25.976A25.896 25.896 0 0 0 8.711 45.24L.475 59.755a1.368 1.368 0 0 0 1.467 2.013l9.354-1.942 3.287 9.264a1.367 1.367 0 0 0 2.477.219l9.077-15.958 9.076 15.958a1.367 1.367 0 0 0 2.477-.219l3.287-9.264 9.354 1.942a1.368 1.368 0 0 0 1.467-2.013l-8.237-14.516a25.896 25.896 0 0 0 8.552-19.262c0-11.885-8.032-22.235-19.533-25.17a1.367 1.367 0 1 0-.676 2.649c10.289 2.626 17.475 11.887 17.475 22.52 0 12.943-10.51 23.243-23.242 23.243-12.74 0-23.243-10.309-23.243-23.242 0-10.634 7.186-19.895 17.475-22.521a1.368 1.368 0 0 0-.676-2.65ZM16.161 65.36l-2.687-7.571a1.367 1.367 0 0 0-1.566-.882l-7.564 1.571 6.519-11.489a26.032 26.032 0 0 0 12.981 4.864l-7.683 13.507Zm24.204-8.453a1.368 1.368 0 0 0-1.566.882l-2.687 7.571-7.683-13.507c4.68-.417 9.18-2.1 12.982-4.864l6.518 11.489-7.564-1.57Z" fill="#fff"/></svg>