<svg width="70" height="56" fill="none" xmlns="http://www.w3.org/2000/svg"><path d="M68.542 50.123c0 2.433-1.91 4.411-4.273 4.411h-39.58c-2.362 0-4.272-1.978-4.272-4.411V25.237c0-2.432 1.91-4.411 4.273-4.411h39.593c2.363 0 4.273 1.979 4.273 4.411v24.886h-.014Z" stroke="#fff" stroke-width="2" stroke-miterlimit="10"/><path d="m17.5 46.342-1.604.586c-2.275.835-4.871-.293-5.702-2.58L1.706 20.944c-.831-2.286.438-4.866 2.713-5.686L41.417 1.729c2.275-.835 4.68.396 5.512 2.682l4.886 13.498M68.542 28.154H20.417M68.542 35.482H20.417M24.792 41.344H35" stroke="#fff" stroke-width="2" stroke-miterlimit="10"/></svg>