<svg width="70" height="70" fill="none" xmlns="http://www.w3.org/2000/svg"><path d="M12.42 32.742H10.16V35h2.258v-2.258ZM10.161 29.355H7.903v2.258h2.258v-2.258ZM20.323 35h-2.258v2.258h2.258V35ZM24.839 32.742H22.58V35h2.258v-2.258ZM55.322 65.484a6.781 6.781 0 0 0 6.775-6.774 6.781 6.781 0 0 0-6.775-6.775 6.781 6.781 0 0 0-6.774 6.775 6.781 6.781 0 0 0 6.774 6.774Zm-4.334-7.972 1.815 1.048 1.129-1.956-1.827-1.056a4.504 4.504 0 0 1 2.089-1.194v2.098h2.258v-2.098a4.51 4.51 0 0 1 2.088 1.194l-1.825 1.055 1.129 1.956 1.814-1.048c.105.385.18.781.18 1.199 0 .417-.075.814-.181 1.198l-1.814-1.048-1.13 1.955 1.827 1.056a4.509 4.509 0 0 1-2.088 1.194v-2.097h-2.258v2.097a4.509 4.509 0 0 1-2.09-1.194l1.826-1.055-1.129-1.955-1.814 1.048a4.529 4.529 0 0 1-.18-1.2c0-.417.075-.813.181-1.197Z" fill="#fff"/><path d="M67.742 67.742V47.419h-2.258v-6.774h-3.387V27.76a7.84 7.84 0 0 0 1.129-4.05c0-2.803-1.472-5.264-3.679-6.667L49.342 5.637C48.365 2.381 45.344 0 41.774 0c-2.773 0-5.212 1.44-6.624 3.607l-13.147 12.49a5.908 5.908 0 0 0-1.853 4.237 5.908 5.908 0 0 0 .938 3.272l-6.08 6.08 1.597 1.596 6.044-6.045a5.906 5.906 0 0 0 3.452 1.13 5.936 5.936 0 0 0 4.037-1.584l9.931-9.167c.34.075.688.127 1.044.157l6.347 7.14a7.85 7.85 0 0 0 1.088 4.847v12.885h-3.387v6.774h-2.258v20.323H22.581V47.419h-2.258v-2.258h2.258v-2.258h-2.372a5.655 5.655 0 0 0-5.532-4.516H4.517v4.516H2.257v2.258h2.258v2.258H2.258v20.323H0V70H70v-2.258h-2.258ZM6.774 40.645h7.903c1.47 0 2.712.947 3.18 2.258H6.774v-2.258Zm0 4.516h11.29v2.258H6.774v-2.258Zm13.549 11.29h-2.259v2.259h2.259v9.032H4.516V58.71h11.29v-2.258H4.517v-6.775h15.807v6.775ZM60.968 23.71a5.652 5.652 0 0 1-5.645 5.645 5.652 5.652 0 0 1-5.646-5.645 5.652 5.652 0 0 1 5.646-5.646 5.652 5.652 0 0 1 5.645 5.646Zm-1.13 6.476v10.46h-9.032v-10.46a7.853 7.853 0 0 0 9.033 0Zm-31.23-7.062a3.682 3.682 0 0 1-5.117-.102 3.664 3.664 0 0 1-1.082-2.659 3.666 3.666 0 0 1 1.15-2.63l10.314-9.8c.012 2.873 1.566 5.382 3.873 6.756l-9.139 8.435Zm13.158-9.576a5.653 5.653 0 0 1-5.637-5.645 5.652 5.652 0 0 1 5.645-5.645 5.652 5.652 0 0 1 5.645 5.645c0 3.11-2.53 5.642-5.64 5.645h-.013Zm6.421 6.787-4.29-4.827a7.918 7.918 0 0 0 5.655-6.25l5.863 6.553c-.03 0-.06-.005-.092-.005-3.15 0-5.867 1.857-7.136 4.529Zm-.768 22.568h15.807v4.516H47.419v-4.516Zm18.065 24.839H45.16V49.677h20.323v18.065Z" fill="#fff"/></svg>