<svg width="70" height="70" fill="none" xmlns="http://www.w3.org/2000/svg"><g clip-path="url(#a)" fill="#fff"><path d="M36.731 33.27a1.367 1.367 0 1 0-1.935 1.933 1.367 1.367 0 0 0 1.935-1.932ZM54.131 15.869a6.833 6.833 0 0 0-9.667 0c-2.665 2.664-2.665 7 0 9.668 2.666 2.663 7.002 2.665 9.667 0a6.833 6.833 0 0 0 0-9.668Zm-1.933 7.734a4.107 4.107 0 0 1-5.8 0 4.107 4.107 0 0 1 0-5.8 4.1 4.1 0 0 1 5.8 0 4.1 4.1 0 0 1 0 5.8Z"/><path d="M69.6.4a1.362 1.362 0 0 0-1.016-.4c-.31.012-7.67.308-16.42 3.4-7.01 2.476-12.854 6.02-17.368 10.534a52.039 52.039 0 0 0-2.938 3.199c-4.464-2.628-8.04-1.804-10.302-.594-5.206 2.787-8.429 10.352-8.429 15.764a1.368 1.368 0 0 0 2.335.966c2.745-2.745 6.132-2.574 7.239-2.428l.478.479a48.082 48.082 0 0 0-2.258 6.64 3.87 3.87 0 0 0 .166 2.375c-1.317.606-2.587 1.497-3.692 2.603-3.52 3.52-4.234 12.096-4.263 12.46a1.367 1.367 0 0 0 1.47 1.47c.364-.029 8.941-.743 12.46-4.263 1.106-1.105 1.996-2.375 2.603-3.69a3.861 3.861 0 0 0 2.376.164 48.1 48.1 0 0 0 6.64-2.258l.478.479c.145 1.106.317 4.493-2.428 7.238a1.367 1.367 0 0 0 .966 2.334c5.412 0 12.977-3.222 15.763-8.429 1.21-2.26 2.034-5.838-.593-10.301a52.043 52.043 0 0 0 3.199-2.938c4.514-4.515 8.058-10.358 10.533-17.369 3.093-8.75 3.389-16.11 3.4-16.419a1.368 1.368 0 0 0-.4-1.016ZM16.183 29.362c.85-4.11 3.316-8.62 6.663-10.412 2.237-1.197 4.681-1.08 7.28.344a55.273 55.273 0 0 0-5.743 9.363c-.02-.013-.267-.322-.724-.425-.188-.043-3.806-.82-7.476 1.13Zm8.945 21.31c-1.88 1.88-6.29 2.871-9.077 3.276.405-2.787 1.396-7.197 3.276-9.077 1.053-1.053 2.274-1.85 3.5-2.3l4.601 4.6c-.45 1.227-1.247 2.448-2.3 3.5Zm6.233-4.242c-.396.101-.854-.047-1.195-.388l-2.678-2.677-3.53-3.531c-.341-.342-.49-.8-.39-1.195a44.393 44.393 0 0 1 1.708-5.222l11.306 11.306a44.355 44.355 0 0 1-5.221 1.707Zm19.688.723c-1.791 3.347-6.301 5.814-10.411 6.663 1.31-2.466 1.599-5.605 1.12-7.509-.111-.442-.4-.665-.416-.69a55.3 55.3 0 0 0 9.364-5.745c1.422 2.6 1.54 5.045.343 7.28Zm3.082-13.883a49.597 49.597 0 0 1-3.943 3.537 52.527 52.527 0 0 1-10.899 6.757L26.436 30.71a52.514 52.514 0 0 1 6.756-10.899 49.622 49.622 0 0 1 3.538-3.943c4.05-4.05 9.277-7.274 15.54-9.595L63.728 17.73c-2.32 6.264-5.544 11.49-9.595 15.541ZM64.71 14.846 55.154 5.29c5.207-1.617 9.736-2.223 11.997-2.44-.218 2.26-.824 6.79-2.44 11.996Z"/><path d="M32.863 56.472a1.367 1.367 0 0 0-1.933 0l-3.867 3.868a1.367 1.367 0 0 0 1.934 1.933l3.867-3.868c.533-.534.533-1.4 0-1.933ZM13.529 37.137a1.367 1.367 0 0 0-1.934 0l-3.867 3.866a1.367 1.367 0 0 0 1.933 1.934l3.867-3.866c.534-.534.535-1.4 0-1.934ZM23.196 58.406a1.367 1.367 0 0 0-1.934 0l-9.26 9.26a1.367 1.367 0 1 0 1.933 1.934l9.26-9.26c.535-.534.535-1.4.001-1.934ZM12.258 58.406a1.367 1.367 0 0 0-1.933 0l-9.261 9.26A1.367 1.367 0 1 0 2.997 69.6l9.261-9.26c.534-.534.534-1.4 0-1.934ZM11.594 46.804a1.367 1.367 0 0 0-1.933 0L.4 56.065A1.367 1.367 0 0 0 2.334 58l9.26-9.262c.534-.534.534-1.4 0-1.933ZM42.53 27.47a1.367 1.367 0 0 0-1.933 0l-1.933 1.933a1.367 1.367 0 0 0 1.934 1.933l1.933-1.933c.534-.534.534-1.4 0-1.934Z"/></g><defs><clipPath id="a"><path fill="#fff" d="M0 0h70v70H0z"/></clipPath></defs></svg>