<svg width="53" height="70" viewBox="0 0 53 70" fill="none" xmlns="http://www.w3.org/2000/svg">
<path d="M5.62885 25.9766C5.62885 37.2847 14.8285 46.4844 26.1367 46.4844C37.4448 46.4844 46.6445 37.2847 46.6445 25.9766C46.6445 14.6684 37.4448 5.46875 26.1367 5.46875C14.8285 5.46875 5.62885 14.6684 5.62885 25.9766ZM26.1367 8.20313C35.9372 8.20313 43.9102 16.1761 43.9102 25.9766C43.9102 35.7771 35.9372 43.7501 26.1367 43.7501C16.3362 43.7501 8.36322 35.7771 8.36322 25.9766C8.36322 16.1761 16.3362 8.20313 26.1367 8.20313Z" fill="white"/>
<path d="M13.4752 23.5391L18.7747 28.7606L17.5554 36.0991C17.4705 36.6102 17.6815 37.125 18.1007 37.4294C18.5194 37.7338 19.0743 37.775 19.5341 37.5368L26.1367 34.1081L32.7387 37.5368C33.1948 37.7734 33.7497 37.7365 34.1721 37.4294C34.5914 37.125 34.8023 36.6102 34.7174 36.0991L33.4982 28.7606L38.7976 23.5391C39.1667 23.1759 39.2986 22.6355 39.1384 22.1425C38.9781 21.6501 38.5536 21.2907 38.0414 21.2133L30.6869 20.1062L27.3592 13.4512C27.1279 12.9882 26.6542 12.6956 26.1367 12.6956C25.6187 12.6956 25.1455 12.9882 24.9137 13.4512L21.586 20.1062L14.2315 21.2133C13.7193 21.2902 13.2947 21.6501 13.1345 22.1425C12.9743 22.6355 13.1067 23.1759 13.4752 23.5391ZM22.6952 22.7044C23.1353 22.6381 23.5155 22.362 23.7147 21.9641L26.1367 17.1197L28.5586 21.9641C28.7579 22.362 29.1381 22.6381 29.5782 22.7044L34.931 23.5102L31.0735 27.3101C30.7568 27.6225 30.6116 28.0695 30.6842 28.5085L31.5718 33.8496L26.7663 31.3545C26.5693 31.252 26.353 31.2007 26.1367 31.2007C25.9204 31.2007 25.7041 31.252 25.5065 31.3545L20.701 33.8496L21.5886 28.5085C21.6618 28.0695 21.5166 27.6225 21.1993 27.3101L17.3423 23.5102L22.6952 22.7044Z" fill="white"/>
<path d="M27.5039 1.36719C27.5039 2.12235 26.8919 2.73438 26.1367 2.73438C25.3816 2.73438 24.7695 2.12235 24.7695 1.36719C24.7695 0.612031 25.3816 0 26.1367 0C26.8919 0 27.5039 0.612031 27.5039 1.36719Z" fill="white"/>
<path d="M19.6933 0.806179C8.19234 3.7419 0.160095 14.0925 0.160095 25.9769C0.160095 33.3581 3.26351 40.3131 8.71144 45.2388L0.474656 59.755C0.209763 60.2223 0.242874 60.8012 0.559037 61.2349C0.8752 61.669 1.41567 61.8779 1.94171 61.7684L11.2957 59.826L14.5834 69.0903C14.7618 69.5945 15.2184 69.9475 15.7514 69.995C16.2844 70.0425 16.7955 69.7739 17.0598 69.3088L26.1367 53.3511L35.213 69.3088C35.4576 69.7387 35.9126 69.9998 36.4008 69.9998C36.4408 69.9998 36.4814 69.9982 36.5215 69.995C37.0545 69.9475 37.5111 69.5939 37.69 69.0903L40.9771 59.826L50.3312 61.7684C50.8567 61.8773 51.3977 61.6685 51.7138 61.2349C52.0305 60.8012 52.0631 60.2223 51.7982 59.755L43.5614 45.2388C49.0094 40.3131 52.1128 33.3581 52.1128 25.9769C52.1128 14.0925 44.0805 3.7419 32.5801 0.806179C31.8479 0.619259 31.104 1.06092 30.9171 1.79258C30.7301 2.52424 31.1718 3.26872 31.9035 3.45564C42.1926 6.08214 49.3789 15.3432 49.3789 25.9769C49.3789 38.9187 38.8681 49.2191 26.1367 49.2191C13.3962 49.2191 2.89447 38.9102 2.89447 25.9769C2.89447 15.3432 10.0802 6.08214 20.3694 3.45564C21.1011 3.26872 21.5427 2.52424 21.3563 1.79258C21.1694 1.06092 20.4255 0.619259 19.6933 0.806179ZM16.161 65.3594L13.4742 57.788C13.2456 57.144 12.577 56.7675 11.9078 56.9063L4.34391 58.477L10.8626 46.9883C14.6635 49.7515 19.164 51.4349 23.844 51.8515L16.161 65.3594ZM40.3651 56.9063C39.6964 56.7675 39.0273 57.144 38.7987 57.788L36.1124 65.3594L28.4289 51.8515C33.1094 51.4349 37.6093 49.7515 41.4108 46.9883L47.9295 58.477L40.3651 56.9063Z" fill="white"/>
</svg>
