<svg width="70" height="56" viewBox="0 0 70 56" fill="none" xmlns="http://www.w3.org/2000/svg">
<path d="M68.5416 50.123C68.5416 52.5558 66.6312 54.5344 64.2687 54.5344H24.6896C22.3271 54.5344 20.4167 52.5558 20.4167 50.123V25.2373C20.4167 22.8045 22.3271 20.8259 24.6896 20.8259H64.2833C66.6458 20.8259 68.5562 22.8045 68.5562 25.2373V50.123H68.5416Z" stroke="white" stroke-width="2" stroke-miterlimit="10"/>
<path d="M17.5 46.3418L15.8958 46.928C13.6208 47.7634 11.025 46.6349 10.1937 44.3486L1.70625 20.9432C0.874996 18.6569 2.14375 16.0774 4.41875 15.2567L41.4167 1.72936C43.6917 0.893979 46.0979 2.12507 46.9292 4.41138L51.8146 17.9094" stroke="white" stroke-width="2" stroke-miterlimit="10"/>
<path d="M68.5417 28.1538H20.4167" stroke="white" stroke-width="2" stroke-miterlimit="10"/>
<path d="M68.5417 35.4817H20.4167" stroke="white" stroke-width="2" stroke-miterlimit="10"/>
<path d="M24.7917 41.3441H35" stroke="white" stroke-width="2" stroke-miterlimit="10"/>
</svg>