<svg width="48" height="48" viewBox="0 0 48 48" fill="none" xmlns="http://www.w3.org/2000/svg">
<path d="M41.9688 5.25C40.6548 5.25154 39.3853 5.7261 38.3926 6.58686C37.3999 7.44762 36.7502 8.63703 36.5625 9.9375H27.125V11.5H36.5V41.9688C36.5 42.1759 36.5823 42.3747 36.7288 42.5212C36.8753 42.6677 37.0741 42.75 37.2812 42.75C37.4884 42.75 37.6872 42.6677 37.8337 42.5212C37.9802 42.3747 38.0625 42.1759 38.0625 41.9688C38.0625 40.9327 38.474 39.9392 39.2066 39.2066C39.9392 38.474 40.9327 38.0625 41.9688 38.0625C43.0048 38.0625 43.9983 38.474 44.7309 39.2066C45.4635 39.9392 45.875 40.9327 45.875 41.9688V42.1328C45.8729 43.1247 45.478 44.0753 44.7767 44.7767C44.0753 45.478 43.1247 45.8729 42.1328 45.875H2.125V29.7164C3.9009 33.1616 6.58846 36.0531 9.89473 38.0758C13.201 40.0986 16.9991 41.1749 20.875 41.1875C21.0822 41.1875 21.2809 41.1052 21.4274 40.9587C21.5739 40.8122 21.6562 40.6134 21.6562 40.4062C21.6562 40.1991 21.5739 40.0003 21.4274 39.8538C21.2809 39.7073 21.0822 39.625 20.875 39.625C17.9431 39.6193 15.0507 38.9494 12.4148 37.6656L12.9 35.8563C13.3831 35.8263 13.8442 35.6437 14.2168 35.3348C14.5895 35.0259 14.8544 34.6067 14.9734 34.1375L17.5453 24.5469C18.1293 24.6549 18.7195 24.7256 19.3125 24.7586V25.5625C19.3125 25.7697 19.3948 25.9684 19.5413 26.1149C19.6878 26.2614 19.8865 26.3438 20.0938 26.3438C20.301 26.3438 20.4997 26.2614 20.6462 26.1149C20.7927 25.9684 20.875 25.7697 20.875 25.5625V24.7586C21.4679 24.7261 22.0582 24.6559 22.6422 24.5484L25.2133 34.1352C25.3319 34.6047 25.5968 35.0243 25.9697 35.3332C26.3426 35.6422 26.8041 35.8246 27.2875 35.8539L27.9328 38.2633C27.9771 38.4297 28.075 38.5768 28.2115 38.6818C28.348 38.7867 28.5153 38.8437 28.6875 38.8438C28.7558 38.8437 28.8238 38.8347 28.8898 38.8172C28.989 38.7906 29.0819 38.7448 29.1633 38.6823C29.2447 38.6199 29.313 38.542 29.3643 38.4531C29.4155 38.3642 29.4488 38.2661 29.4622 38.1644C29.4756 38.0626 29.4688 37.9593 29.4422 37.8602L28.7977 35.4563C29.1941 35.1822 29.4966 34.7929 29.6643 34.341C29.832 33.8892 29.8567 33.3968 29.7352 32.9305L24.6086 13.7992C25.4225 12.6107 25.7331 11.1485 25.4727 9.73181C25.2123 8.31509 24.402 7.05892 23.2188 6.2375V3.6875C23.2188 2.8587 22.8895 2.06384 22.3035 1.47779C21.7174 0.89174 20.9226 0.5625 20.0938 0.5625C19.2649 0.5625 18.4701 0.89174 17.884 1.47779C17.298 2.06384 16.9688 2.8587 16.9688 3.6875V6.2375C15.7855 7.05892 14.9752 8.31509 14.7148 9.73181C14.4544 11.1485 14.765 12.6107 15.5789 13.7992L10.4477 32.9336C10.3265 33.3998 10.352 33.8921 10.5205 34.3433C10.6891 34.7945 10.9927 35.1829 11.3898 35.4555L10.9992 36.9086C6.6977 34.3919 3.52246 30.3244 2.125 25.5406V11.5H13.0625V9.9375H0.5625V47.4375H42.1328C43.5396 47.4354 44.8881 46.8755 45.8826 45.8804C46.8771 44.8854 47.4363 43.5365 47.4375 42.1297V10.7188C47.4358 9.26886 46.8591 7.87882 45.8339 6.85359C44.8087 5.82836 43.4186 5.25165 41.9688 5.25ZM20.875 23.1719V22.4375C20.875 22.2303 20.7927 22.0316 20.6462 21.8851C20.4997 21.7386 20.301 21.6562 20.0938 21.6562C19.8865 21.6562 19.6878 21.7386 19.5413 21.8851C19.3948 22.0316 19.3125 22.2303 19.3125 22.4375V23.1719C18.8582 23.1446 18.4057 23.0925 17.957 23.0156L19.7914 16.1734C19.8922 16.1789 19.9914 16.1891 20.0938 16.1891C20.1961 16.1891 20.2953 16.1789 20.3961 16.1734L22.2305 23.0156C21.7818 23.0925 21.3293 23.1446 20.875 23.1719ZM28.2289 33.332C28.2809 33.5314 28.2528 33.7432 28.1505 33.922C28.0483 34.1009 27.8802 34.2326 27.682 34.2891H27.6773C27.4781 34.3418 27.2661 34.3138 27.0875 34.2109C26.9991 34.1596 26.9219 34.0912 26.8603 34.0096C26.7987 33.928 26.7541 33.835 26.7289 33.7359L21.9305 15.8633C22.4356 15.6823 22.9114 15.4277 23.3422 15.1078L28.2289 33.332ZM18.5312 3.6875C18.5312 3.2731 18.6959 2.87567 18.9889 2.58265C19.2819 2.28962 19.6793 2.125 20.0938 2.125C20.5082 2.125 20.9056 2.28962 21.1986 2.58265C21.4916 2.87567 21.6562 3.2731 21.6562 3.6875V5.48438C20.6372 5.17708 19.5503 5.17708 18.5312 5.48438V3.6875ZM20.0938 6.8125C20.8663 6.8125 21.6216 7.0416 22.2639 7.47082C22.9063 7.90005 23.407 8.51012 23.7027 9.22389C23.9983 9.93767 24.0757 10.7231 23.9249 11.4808C23.7742 12.2386 23.4022 12.9346 22.8559 13.4809C22.3096 14.0272 21.6136 14.3992 20.8558 14.5499C20.0981 14.7007 19.3127 14.6233 18.5989 14.3277C17.8851 14.032 17.275 13.5313 16.8458 12.8889C16.4166 12.2466 16.1875 11.4913 16.1875 10.7188C16.1887 9.68313 16.6007 8.69028 17.333 7.95798C18.0653 7.22569 19.0581 6.81374 20.0938 6.8125ZM11.9578 33.3352L16.8453 15.1078C17.2761 15.4277 17.7519 15.6823 18.257 15.8633L13.4633 33.7398C13.4097 33.9376 13.2806 34.1063 13.1038 34.2098C12.927 34.3133 12.7166 34.3431 12.518 34.293H12.5109C12.3115 34.2379 12.1417 34.1066 12.0382 33.9274C11.9347 33.7482 11.9058 33.5355 11.9578 33.3352ZM45.875 38.1445C45.3663 37.624 44.7587 37.2104 44.0879 36.928C43.4171 36.6456 42.6966 36.5001 41.9688 36.5001C41.2409 36.5001 40.5204 36.6456 39.8496 36.928C39.1788 37.2104 38.5712 37.624 38.0625 38.1445V10.7188C38.0625 9.68275 38.474 8.68918 39.2066 7.95661C39.9392 7.22405 40.9327 6.8125 41.9688 6.8125C43.0048 6.8125 43.9983 7.22405 44.7309 7.95661C45.4635 8.68918 45.875 9.68275 45.875 10.7188V38.1445Z" fill="white"/>
<path d="M20.0937 13.0625C20.5573 13.0625 21.0104 12.925 21.3959 12.6675C21.7813 12.41 22.0817 12.0439 22.2591 11.6157C22.4365 11.1874 22.4829 10.7162 22.3925 10.2615C22.302 9.80686 22.0788 9.38925 21.751 9.06147C21.4233 8.73369 21.0056 8.51047 20.551 8.42004C20.0964 8.3296 19.6251 8.37602 19.1968 8.55341C18.7686 8.7308 18.4025 9.03121 18.145 9.41663C17.8875 9.80206 17.75 10.2552 17.75 10.7187C17.75 11.3404 17.9969 11.9365 18.4365 12.376C18.876 12.8156 19.4721 13.0625 20.0937 13.0625ZM20.0937 9.9375C20.2483 9.9375 20.3993 9.98332 20.5278 10.0692C20.6563 10.155 20.7564 10.277 20.8155 10.4198C20.8747 10.5625 20.8901 10.7196 20.86 10.8712C20.8298 11.0227 20.7554 11.1619 20.6462 11.2712C20.5369 11.3804 20.3977 11.4548 20.2462 11.485C20.0946 11.5151 19.9375 11.4997 19.7948 11.4405C19.652 11.3814 19.53 11.2813 19.4442 11.1528C19.3583 11.0243 19.3125 10.8733 19.3125 10.7187C19.3125 10.5115 19.3948 10.3128 19.5413 10.1663C19.6878 10.0198 19.8865 9.9375 20.0937 9.9375Z" fill="white"/>
</svg>
