<svg width="50" height="40" viewBox="0 0 50 40" fill="none" xmlns="http://www.w3.org/2000/svg">
<path d="M48.9583 35.8022C48.9583 37.54 47.5937 38.9532 45.9062 38.9532H17.6354C15.9479 38.9532 14.5833 37.54 14.5833 35.8022V18.0267C14.5833 16.289 15.9479 14.8757 17.6354 14.8757H45.9166C47.6041 14.8757 48.9687 16.289 48.9687 18.0267V35.8022H48.9583Z" stroke="white" stroke-width="2" stroke-miterlimit="10"/>
<path d="M12.5 33.1012L11.3542 33.52C9.72915 34.1167 7.87499 33.3106 7.28124 31.6775L1.21874 14.9594C0.624988 13.3263 1.53124 11.4838 3.15624 10.8976L29.5833 1.23522C31.2083 0.638521 32.9271 1.51787 33.5208 3.15095L37.0104 12.7924" stroke="white" stroke-width="2" stroke-miterlimit="10"/>
<path d="M48.9583 20.1099H14.5833" stroke="white" stroke-width="2" stroke-miterlimit="10"/>
<path d="M48.9583 25.344H14.5833" stroke="white" stroke-width="2" stroke-miterlimit="10"/>
<path d="M17.7083 29.5315H25" stroke="white" stroke-width="2" stroke-miterlimit="10"/>
</svg>
